<svg width="17" height="24" viewBox="0 0 17 24" fill="none" xmlns="http://www.w3.org/2000/svg">
<path d="M8.80733 20.4763C6.1034 18.4819 4.08484 16.545 2.75166 14.6657C1.41926 12.7864 0.753052 10.9454 0.753052 9.14278C0.753052 7.78122 0.997749 6.58727 1.48714 5.56093C1.97577 4.53535 2.60362 3.67738 3.37069 2.98701C4.13777 2.29664 5.00073 1.77887 5.95957 1.43368C6.91841 1.0885 7.86767 0.915909 8.80733 0.915909C9.747 0.915909 10.6963 1.0885 11.6551 1.43368C12.6139 1.77887 13.4769 2.29664 14.244 2.98701C15.011 3.67738 15.6393 4.53535 16.1287 5.56093C16.6173 6.58727 16.8616 7.78122 16.8616 9.14278C16.8616 10.9454 16.195 12.7864 14.8619 14.6657C13.5294 16.545 11.5113 18.4819 8.80733 20.4763ZM8.80733 11.2714C9.44017 11.2714 9.98211 11.0459 10.4331 10.5949C10.8834 10.1446 11.1086 9.60303 11.1086 8.97019C11.1086 8.33735 10.8834 7.79542 10.4331 7.34438C9.98211 6.8941 9.44017 6.66897 8.80733 6.66897C8.1745 6.66897 7.63294 6.8941 7.18267 7.34438C6.73163 7.79542 6.50611 8.33735 6.50611 8.97019C6.50611 9.60303 6.73163 10.1446 7.18267 10.5949C7.63294 11.0459 8.1745 11.2714 8.80733 11.2714ZM0.753052 23.9281V21.6269H16.8616V23.9281H0.753052Z" fill="white"/>
</svg>
