<svg width="22" height="22" viewBox="0 0 22 22" fill="none" xmlns="http://www.w3.org/2000/svg">
<path d="M4.617 9.4151C6.27388 12.6713 8.9433 15.3292 12.1995 16.9976L14.7309 14.4663C15.0415 14.1556 15.5018 14.0521 15.9045 14.1901C17.1932 14.6159 18.5854 14.846 20.0122 14.846C20.645 14.846 21.1628 15.3638 21.1628 15.9966V20.0122C21.1628 20.6451 20.645 21.1628 20.0122 21.1628C9.20794 21.1628 0.451782 12.4067 0.451782 1.60245C0.451782 0.969611 0.969557 0.451836 1.60239 0.451836H5.62953C6.26237 0.451836 6.78015 0.969611 6.78015 1.60245C6.78015 3.04071 7.01027 4.42145 7.43599 5.71013C7.56256 6.11284 7.47051 6.56158 7.14834 6.88375L4.617 9.4151Z" fill="white"/>
</svg>
